{
  "accessors": [
    {
      "bufferView": 2,
      "componentType": 5126,
      "count": 61157,
      "max": [
        -0.8493130207061768,
        2.380743980407715,
        2.2244670391082764
      ],
      "min": [
        -3.9275259971618652,
        -3.9978489875793457,
        -4.4073591232299805
      ],
      "type": "VEC3"
    },
    {
      "bufferView": 2,
      "byteOffset": 733884,
      "componentType": 5126,
      "count": 61157,
      "max": [
        0.9999815225601196,
        0.9999391436576843,
        0.9997074604034424
      ],
      "min": [
        -0.9999641180038452,
        -0.9985376596450806,
        -0.9975429773330688
      ],
      "type": "VEC3"
    },
    {
      "bufferView": 1,
      "componentType": 5126,
      "count": 61157,
      "max": [
        0.9905580282211304,
        0.9919189810752869
      ],
      "min": [
        0.008097000420093536,
        0.008346999995410442
      ],
      "type": "VEC2"
    },
    {
      "bufferView": 0,
      "componentType": 5125,
      "count": 319629,
      "type": "SCALAR"
    },
    {
      "bufferView": 2,
      "byteOffset": 1467768,
      "componentType": 5126,
      "count": 32536,
      "max": [
        -0.8561819791793823,
        2.37026309967041,
        2.2244670391082764
      ],
      "min": [
        -3.8382930755615234,
        -3.7906041145324707,
        -4.4073591232299805
      ],
      "type": "VEC3"
    },
    {
      "bufferView": 2,
      "byteOffset": 1858200,
      "componentType": 5126,
      "count": 32536,
      "max": [
        0.9999724626541138,
        0.9999126195907593,
        0.9993612170219421
      ],
      "min": [
        -0.9991824626922607,
        -0.9999728798866272,
        -0.9997747540473938
      ],
      "type": "VEC3"
    },
    {
      "bufferView": 1,
      "byteOffset": 489256,
      "componentType": 5126,
      "count": 32536,
      "max": [
        0.9919430017471313,
        0.9919260144233704
      ],
      "min": [
        0.008090999908745289,
        0.0149959996342659
      ],
      "type": "VEC2"
    },
    {
      "bufferView": 0,
      "byteOffset": 1278516,
      "componentType": 5125,
      "count": 160338,
      "type": "SCALAR"
    }
  ],
  "asset": {
    "extras": {
      "author": "Terrie Simmons-Ehrhardt (https://sketchfab.com/terrielsimmons)",
      "license": "CC-BY-4.0 (http://creativecommons.org/licenses/by/4.0/)",
      "source": "https://sketchfab.com/3d-models/grumpy-octopus-f735008e7aeb42e6b6aa045395f8edb5",
      "title": "Grumpy Octopus"
    },
    "generator": "Sketchfab-12.65.0",
    "version": "2.0"
  },
  "bufferViews": [
    {
      "buffer": 0,
      "byteLength": 1919868,
      "name": "floatBufferViews",
      "target": 34963
    },
    {
      "buffer": 0,
      "byteLength": 749544,
      "byteOffset": 1919868,
      "byteStride": 8,
      "name": "floatBufferViews",
      "target": 34962
    },
    {
      "buffer": 0,
      "byteLength": 2248632,
      "byteOffset": 2669412,
      "byteStride": 12,
      "name": "floatBufferViews",
      "target": 34962
    }
  ],
  "buffers": [
    {
      "byteLength": 4918044,
      "uri": "scene.bin"
    }
  ],
  "extensionsUsed": [
    "KHR_materials_unlit"
  ],
  "images": [
    {
      "uri": "textures/material0000_baseColor.jpeg"
    },
    {
      "uri": "textures/material0001_baseColor.jpeg"
    }
  ],
  "materials": [
    {
      "doubleSided": true,
      "extensions": {
        "KHR_materials_unlit": {}
      },
      "name": "material0000",
      "pbrMetallicRoughness": {
        "baseColorTexture": {
          "index": 0
        },
        "metallicFactor": 0.0
      }
    },
    {
      "doubleSided": true,
      "extensions": {
        "KHR_materials_unlit": {}
      },
      "name": "material0001",
      "pbrMetallicRoughness": {
        "baseColorTexture": {
          "index": 1
        },
        "metallicFactor": 0.0
      }
    }
  ],
  "meshes": [
    {
      "name": "Object_0",
      "primitives": [
        {
          "attributes": {
            "NORMAL": 1,
            "POSITION": 0,
            "TEXCOORD_0": 2
          },
          "indices": 3,
          "material": 0,
          "mode": 4
        }
      ]
    },
    {
      "name": "Object_1",
      "primitives": [
        {
          "attributes": {
            "NORMAL": 5,
            "POSITION": 4,
            "TEXCOORD_0": 6
          },
          "indices": 7,
          "material": 1,
          "mode": 4
        }
      ]
    }
  ],
  "nodes": [
    {
      "children": [
        1
      ],
      "matrix": [
        -0.08450203388929367,
        0.8977425694465638,
        -0.4323397576808927,
        0.0,
        -0.14101704955101013,
        0.41874986886978127,
        0.8970856666564943,
        0.0,
        0.9863942265510559,
        0.13677284121513364,
        0.0912117958068848,
        0.0,
        -1.627665638923645,
        1.5406194925308225,
        0.6008356809616092,
        1.0
      ],
      "name": "Sketchfab_model"
    },
    {
      "children": [
        2,
        3
      ],
      "name": "model.obj.cleaner.materialmerger.gles"
    },
    {
      "mesh": 0,
      "name": "Object_2"
    },
    {
      "mesh": 1,
      "name": "Object_3"
    }
  ],
  "samplers": [
    {
      "magFilter": 9729,
      "minFilter": 9987,
      "wrapS": 10497,
      "wrapT": 10497
    }
  ],
  "scene": 0,
  "scenes": [
    {
      "name": "Sketchfab_Scene",
      "nodes": [
        0
      ]
    }
  ],
  "textures": [
    {
      "sampler": 0,
      "source": 0
    },
    {
      "sampler": 0,
      "source": 1
    }
  ]
}
